<svg xmlns="http://www.w3.org/2000/svg" viewBox="0 0 21.74 18.65"><defs><style>.cls-1{fill:#1c90f7;}.cls-2{fill:#121150;}</style></defs><title>Tray</title><g id="Camada_2" data-name="Camada 2"><g id="Camada_1-2" data-name="Camada 1"><g id="svg_1" data-name="svg 1"><path id="a" class="cls-1" d="M5.31,0C5.31,4.52,8,8.86,9,10.38a1.38,1.38,0,0,0,1.11.57h6.77A1.36,1.36,0,0,0,18,10.38C19.07,8.86,21.74,4.52,21.74,0Z"/></g><g id="svg_2" data-name="svg 2"><path id="b" class="cls-2" d="M5.93,11.3l-.11-.12Z"/></g><g id="svg_3" data-name="svg 3"><path id="c" class="cls-2" d="M0,1.86H1.59a21.24,21.24,0,0,0,1,3.46,21.24,21.24,0,0,1-1-3.46Z"/></g><g id="svg_4" data-name="svg 4"><path id="d" class="cls-2" d="M4.16,14.91c.39-.64.75-1.29,1.1-1.95C4.92,13.62,4.55,14.27,4.16,14.91Z"/></g><g id="svg_5" data-name="svg 5"><path id="e" class="cls-2" d="M6,11.41c-.18.4-.38.8-.59,1.19C5.65,12.21,5.85,11.81,6,11.41Z"/></g><g id="svg_6" data-name="svg 6"><path id="f" class="cls-2" d="M11.23,3.25C11.71,1.31,11.9,0,11.9,0H9.55a27.92,27.92,0,0,1-.73,3.82c0,.1-.05.2-.08.3C8.41,5.37,8,6.65,7.51,8c-.17.45-.35.91-.54,1.37l-.08-.08,0-.05A20,20,0,0,1,5.23,6.11s0-.07,0-.11L5,5.4A20.46,20.46,0,0,1,3.7.06V0H0V1.86H1.59a21.24,21.24,0,0,0,1,3.46A20.85,20.85,0,0,0,5.63,11a1.37,1.37,0,0,0,.19.23l.11.12.11.11c-.19.4-.39.79-.59,1.18L5.26,13c-.35.66-.72,1.32-1.1,2H6.32c.47-.7.91-1.43,1.32-2.17s.87-1.67,1.24-2.51c.46-1.06.86-2.1,1.2-3.1.07-.2.14-.41.2-.6s.13-.39.19-.58q.27-.87.48-1.65c.09-.33.18-.65.25-1a.46.46,0,0,0,0-.09Z"/></g><g id="svg_7" data-name="svg 7"><path id="g" class="cls-2" d="M4.66,18.65a1.4,1.4,0,1,0-1.43-1.4A1.42,1.42,0,0,0,4.66,18.65Z"/></g><g id="svg_8" data-name="svg 8"><path class="cls-2" d="M17.47,18.54A1.4,1.4,0,1,0,16,17.15,1.42,1.42,0,0,0,17.47,18.54Z"/></g></g></g></svg>